# xmcd CD database file
#
# Track frame offsets:
#	150
#	23237
#	33560
#	60562
#	73085
#	87195
#	105987
#	116932
#	132710
#	156050
#	169692
#	181975
#	198647
#	210190
#	229820
#	261432
#
# Disc length: 3732 seconds
#
# Revision: 0
# Processed by: cddbd v1.5PL3 Copyright (c) Steve Scherf et al.
# Submitted via: CDex 1.50
#
DISCID=e30e9210
DTITLE=DIP - WEEKENDER
DYEAR=1999
DGENRE=Rock
TTITLE0=FASTER.FASTER
TTITLE1=DREAD 204
TTITLE2=SHOULD I WAIT OR SHOULD I OUT
TTITLE3=FREETERS
TTITLE4=THE CRYING GAME
TTITLE5=STUDIO
TTITLE6=DARJEELING
TTITLE7=COME OUT
TTITLE8=WEEKENDER
TTITLE9=YOU NEVER MOVE
TTITLE10=THE RABBIT HOUSE
TTITLE11=AMP HATE MINE
TTITLE12=SOMEWHERE THERE'S A FEATHER
TTITLE13=NOW GOTTA THE SUN
TTITLE14=TOO FAR TO WANT
TTITLE15=WIRE
EXTD=YEAR: 1999
EXTT0=
EXTT1=
EXTT2=
EXTT3=
EXTT4=
EXTT5=
EXTT6=
EXTT7=
EXTT8=
EXTT9=
EXTT10=
EXTT11=
EXTT12=
EXTT13=
EXTT14=
EXTT15=
PLAYORDER=
